<mxfile host="app.diagrams.net" agent="Mozilla/5.0 (Windows NT 10.0; Win64; x64) AppleWebKit/537.36 (KHTML, like Gecko) Chrome/141.0.0.0 Safari/537.36" version="28.2.7">
  <diagram name="第 1 页" id="W3_UTTQ6PQ7SQEcw9UUB">
    <mxGraphModel dx="2305" dy="1137" grid="1" gridSize="10" guides="1" tooltips="1" connect="1" arrows="1" fold="1" page="1" pageScale="1" pageWidth="1169" pageHeight="827" math="0" shadow="0">
      <root>
        <mxCell id="0" />
        <mxCell id="1" parent="0" />
        <mxCell id="Dz1xL2jXlpIdlorty98M-1" value="" style="rounded=0;whiteSpace=wrap;html=1;" parent="1" vertex="1">
          <mxGeometry x="20" y="860" width="1920" height="410" as="geometry" />
        </mxCell>
        <mxCell id="BselB2HCNsnOihKKjxWQ-10" value="" style="rounded=0;whiteSpace=wrap;html=1;" parent="1" vertex="1">
          <mxGeometry x="10" y="150" width="1160" height="280" as="geometry" />
        </mxCell>
        <mxCell id="BselB2HCNsnOihKKjxWQ-1" value="点云" style="triangle;whiteSpace=wrap;html=1;" parent="1" vertex="1">
          <mxGeometry x="80" y="260" width="60" height="80" as="geometry" />
        </mxCell>
        <mxCell id="BselB2HCNsnOihKKjxWQ-2" value="AR模型" style="rounded=1;whiteSpace=wrap;html=1;" parent="1" vertex="1">
          <mxGeometry x="210" y="270" width="120" height="60" as="geometry" />
        </mxCell>
        <mxCell id="BselB2HCNsnOihKKjxWQ-4" value="基元序列" style="swimlane;fontStyle=0;childLayout=stackLayout;horizontal=1;startSize=30;horizontalStack=0;resizeParent=1;resizeParentMax=0;resizeLast=0;collapsible=1;marginBottom=0;whiteSpace=wrap;html=1;swimlaneFillColor=none;" parent="1" vertex="1">
          <mxGeometry x="700" y="230" width="170" height="180" as="geometry">
            <mxRectangle x="700" y="230" width="90" height="30" as="alternateBounds" />
          </mxGeometry>
        </mxCell>
        <mxCell id="BselB2HCNsnOihKKjxWQ-5" value="类别" style="text;strokeColor=none;fillColor=none;align=left;verticalAlign=middle;spacingLeft=4;spacingRight=4;overflow=hidden;points=[[0,0.5],[1,0.5]];portConstraint=eastwest;rotatable=0;whiteSpace=wrap;html=1;" parent="BselB2HCNsnOihKKjxWQ-4" vertex="1">
          <mxGeometry y="30" width="170" height="30" as="geometry" />
        </mxCell>
        <mxCell id="BselB2HCNsnOihKKjxWQ-6" value="外参(位置，缩放）" style="text;strokeColor=none;fillColor=none;align=left;verticalAlign=middle;spacingLeft=4;spacingRight=4;overflow=hidden;points=[[0,0.5],[1,0.5]];portConstraint=eastwest;rotatable=0;whiteSpace=wrap;html=1;" parent="BselB2HCNsnOihKKjxWQ-4" vertex="1">
          <mxGeometry y="60" width="170" height="30" as="geometry" />
        </mxCell>
        <mxCell id="BselB2HCNsnOihKKjxWQ-7" value="内参(uv范围，内径、外径）" style="text;strokeColor=none;fillColor=none;align=left;verticalAlign=middle;spacingLeft=4;spacingRight=4;overflow=hidden;points=[[0,0.5],[1,0.5]];portConstraint=eastwest;rotatable=0;whiteSpace=wrap;html=1;" parent="BselB2HCNsnOihKKjxWQ-4" vertex="1">
          <mxGeometry y="90" width="170" height="30" as="geometry" />
        </mxCell>
        <mxCell id="BselB2HCNsnOihKKjxWQ-24" value="内外方向" style="text;strokeColor=none;fillColor=none;align=left;verticalAlign=middle;spacingLeft=4;spacingRight=4;overflow=hidden;points=[[0,0.5],[1,0.5]];portConstraint=eastwest;rotatable=0;whiteSpace=wrap;html=1;" parent="BselB2HCNsnOihKKjxWQ-4" vertex="1">
          <mxGeometry y="120" width="170" height="30" as="geometry" />
        </mxCell>
        <mxCell id="BselB2HCNsnOihKKjxWQ-25" value="连接关系？" style="text;strokeColor=none;fillColor=none;align=left;verticalAlign=middle;spacingLeft=4;spacingRight=4;overflow=hidden;points=[[0,0.5],[1,0.5]];portConstraint=eastwest;rotatable=0;whiteSpace=wrap;html=1;" parent="BselB2HCNsnOihKKjxWQ-4" vertex="1">
          <mxGeometry y="150" width="170" height="30" as="geometry" />
        </mxCell>
        <mxCell id="BselB2HCNsnOihKKjxWQ-8" value="Token序列" style="whiteSpace=wrap;html=1;" parent="1" vertex="1">
          <mxGeometry x="380" y="270" width="120" height="60" as="geometry" />
        </mxCell>
        <mxCell id="BselB2HCNsnOihKKjxWQ-9" value="Decoder" style="rounded=1;whiteSpace=wrap;html=1;" parent="1" vertex="1">
          <mxGeometry x="530" y="270" width="120" height="60" as="geometry" />
        </mxCell>
        <mxCell id="BselB2HCNsnOihKKjxWQ-11" value="几何" style="text;html=1;align=center;verticalAlign=middle;resizable=0;points=[];autosize=1;strokeColor=none;fillColor=none;" parent="1" vertex="1">
          <mxGeometry x="20" y="160" width="50" height="30" as="geometry" />
        </mxCell>
        <mxCell id="BselB2HCNsnOihKKjxWQ-12" value="" style="rounded=0;whiteSpace=wrap;html=1;" parent="1" vertex="1">
          <mxGeometry x="10" y="450" width="960" height="280" as="geometry" />
        </mxCell>
        <mxCell id="BselB2HCNsnOihKKjxWQ-13" value="拓扑" style="text;html=1;align=center;verticalAlign=middle;resizable=0;points=[];autosize=1;strokeColor=none;fillColor=none;" parent="1" vertex="1">
          <mxGeometry x="20" y="460" width="50" height="30" as="geometry" />
        </mxCell>
        <mxCell id="BselB2HCNsnOihKKjxWQ-14" value="基元序列" style="swimlane;fontStyle=0;childLayout=stackLayout;horizontal=1;startSize=30;horizontalStack=0;resizeParent=1;resizeParentMax=0;resizeLast=0;collapsible=1;marginBottom=0;whiteSpace=wrap;html=1;" parent="1" vertex="1">
          <mxGeometry x="80" y="1020" width="170" height="120" as="geometry" />
        </mxCell>
        <mxCell id="BselB2HCNsnOihKKjxWQ-15" value="类别" style="text;strokeColor=none;fillColor=none;align=left;verticalAlign=middle;spacingLeft=4;spacingRight=4;overflow=hidden;points=[[0,0.5],[1,0.5]];portConstraint=eastwest;rotatable=0;whiteSpace=wrap;html=1;" parent="BselB2HCNsnOihKKjxWQ-14" vertex="1">
          <mxGeometry y="30" width="170" height="30" as="geometry" />
        </mxCell>
        <mxCell id="BselB2HCNsnOihKKjxWQ-16" value="外参(位置，缩放）" style="text;strokeColor=none;fillColor=none;align=left;verticalAlign=middle;spacingLeft=4;spacingRight=4;overflow=hidden;points=[[0,0.5],[1,0.5]];portConstraint=eastwest;rotatable=0;whiteSpace=wrap;html=1;" parent="BselB2HCNsnOihKKjxWQ-14" vertex="1">
          <mxGeometry y="60" width="170" height="30" as="geometry" />
        </mxCell>
        <mxCell id="BselB2HCNsnOihKKjxWQ-17" value="内参(uv范围，内径、外径）" style="text;strokeColor=none;fillColor=none;align=left;verticalAlign=middle;spacingLeft=4;spacingRight=4;overflow=hidden;points=[[0,0.5],[1,0.5]];portConstraint=eastwest;rotatable=0;whiteSpace=wrap;html=1;" parent="BselB2HCNsnOihKKjxWQ-14" vertex="1">
          <mxGeometry y="90" width="170" height="30" as="geometry" />
        </mxCell>
        <mxCell id="BselB2HCNsnOihKKjxWQ-27" value="自动缝合" style="shape=parallelogram;perimeter=parallelogramPerimeter;whiteSpace=wrap;html=1;fixedSize=1;" parent="1" vertex="1">
          <mxGeometry x="970" y="270" width="120" height="60" as="geometry" />
        </mxCell>
        <mxCell id="Dz1xL2jXlpIdlorty98M-2" value="自动缝合" style="text;html=1;align=center;verticalAlign=middle;resizable=0;points=[];autosize=1;strokeColor=none;fillColor=none;" parent="1" vertex="1">
          <mxGeometry x="20" y="880" width="70" height="30" as="geometry" />
        </mxCell>
        <mxCell id="Dz1xL2jXlpIdlorty98M-4" value="OCC构建基元&lt;div&gt;包括UV范围&lt;/div&gt;" style="rounded=0;whiteSpace=wrap;html=1;" parent="1" vertex="1">
          <mxGeometry x="300" y="1050" width="120" height="60" as="geometry" />
        </mxCell>
        <mxCell id="Dz1xL2jXlpIdlorty98M-5" value="转成freeCAD格式" style="rounded=0;whiteSpace=wrap;html=1;" parent="1" vertex="1">
          <mxGeometry x="460" y="1050" width="170" height="60" as="geometry" />
        </mxCell>
        <mxCell id="Dz1xL2jXlpIdlorty98M-6" value="根据实体位置&lt;div&gt;判断哪些面相交&lt;/div&gt;" style="rounded=0;whiteSpace=wrap;html=1;" parent="1" vertex="1">
          <mxGeometry x="660" y="1050" width="170" height="60" as="geometry" />
        </mxCell>
        <mxCell id="Dz1xL2jXlpIdlorty98M-7" value="遍历所有面&lt;div&gt;求交线&lt;/div&gt;" style="rounded=0;whiteSpace=wrap;html=1;" parent="1" vertex="1">
          <mxGeometry x="850" y="1050" width="170" height="60" as="geometry" />
        </mxCell>
        <mxCell id="Dz1xL2jXlpIdlorty98M-8" value="将交线连接在一起&lt;div&gt;形成inner wires&lt;/div&gt;" style="rounded=0;whiteSpace=wrap;html=1;" parent="1" vertex="1">
          <mxGeometry x="1040" y="1050" width="170" height="60" as="geometry" />
        </mxCell>
        <mxCell id="Dz1xL2jXlpIdlorty98M-9" value="openSCAD faces -&amp;gt; shell" style="rounded=0;whiteSpace=wrap;html=1;" parent="1" vertex="1">
          <mxGeometry x="1860" y="1050" width="170" height="60" as="geometry" />
        </mxCell>
        <mxCell id="Dz1xL2jXlpIdlorty98M-10" value="shell -&amp;gt; solid?" style="rounded=0;whiteSpace=wrap;html=1;" parent="1" vertex="1">
          <mxGeometry x="2050" y="1050" width="170" height="60" as="geometry" />
        </mxCell>
        <mxCell id="Dz1xL2jXlpIdlorty98M-11" value="导出step" style="rounded=0;whiteSpace=wrap;html=1;" parent="1" vertex="1">
          <mxGeometry x="2250" y="1050" width="170" height="60" as="geometry" />
        </mxCell>
        <mxCell id="43Lu1swzMmdwhKiUgGnW-1" value="inner wires -&amp;gt; surface -&amp;gt; extrude" style="rounded=0;whiteSpace=wrap;html=1;" vertex="1" parent="1">
          <mxGeometry x="1240" y="1050" width="170" height="60" as="geometry" />
        </mxCell>
        <mxCell id="43Lu1swzMmdwhKiUgGnW-2" value="extruded surface cut" style="rounded=0;whiteSpace=wrap;html=1;" vertex="1" parent="1">
          <mxGeometry x="1450" y="1050" width="170" height="60" as="geometry" />
        </mxCell>
        <mxCell id="43Lu1swzMmdwhKiUgGnW-3" value="确定剩余面片位置" style="rounded=0;whiteSpace=wrap;html=1;" vertex="1" parent="1">
          <mxGeometry x="1640" y="1050" width="170" height="60" as="geometry" />
        </mxCell>
      </root>
    </mxGraphModel>
  </diagram>
</mxfile>
